<svg width="60" height="60" viewBox="0 0 60 60" fill="none" xmlns="http://www.w3.org/2000/svg">
<path fill-rule="evenodd" clip-rule="evenodd" d="M27.5 34.7609V47.0023L29.2203 49.582C29.5914 50.1383 30.4094 50.1383 30.7805 49.582L32.5 47.0023V34.7609C31.6883 34.9109 30.8547 35 30 35C29.1453 35 28.3117 34.9109 27.5 34.7609ZM30 10C23.7867 10 18.75 15.0367 18.75 21.25C18.75 27.4633 23.7867 32.5 30 32.5C36.2133 32.5 41.25 27.4633 41.25 21.25C41.25 15.0367 36.2133 10 30 10ZM30 15.9375C27.0703 15.9375 24.6875 18.3203 24.6875 21.25C24.6875 21.7672 24.2672 22.1875 23.75 22.1875C23.2328 22.1875 22.8125 21.7672 22.8125 21.25C22.8125 17.2867 26.0375 14.0625 30 14.0625C30.5172 14.0625 30.9375 14.4828 30.9375 15C30.9375 15.5172 30.5172 15.9375 30 15.9375Z" fill="white"/>
</svg>
